<svg xmlns="http://www.w3.org/2000/svg" viewBox="0 0 64 64">
  <defs>
    <linearGradient id="g" x1="0" y1="0" x2="1" y2="1">
      <stop offset="0" stop-color="#6c5ce7"/>
      <stop offset="1" stop-color="#a29bfe"/>
    </linearGradient>
  </defs>
  <rect width="64" height="64" rx="14" fill="url(#g)"/>
  <path d="M32,9 C24,19 20,25 20,33 C20,43.5 25.8,50 32,50 C38.2,50 44,43.5 44,33 C44,27 41,23 38,17 C38,23 34,25 33,21 C32,17 34,13 32,9 Z" fill="#ffffff" opacity="0.9"/>
  <path d="M32,25 C28,31 26,35 26,39 C26,44.2 28.8,47.5 32,47.5 C35.2,47.5 38,44.2 38,39 C38,36 36,34 34,30 C34,33 32,34 32,31 C31.5,29 32,27 32,25 Z" fill="#64ffda"/>
</svg>
